# xmcd
#
# Track frame offsets:
#	150
#	21602
#	41082
#	63437
#	75867
#	105270
#	113632
#	137535
#	145952
#	172175
#	195120
#
# Disc length: 2883 seconds
#
# Revision: 1
# Processed by: cddbd v1.5.2PL0 Copyright (c) Steve Scherf et al.
# Submitted via: audiograbber 1.83.01
#
DISCID=8a0b410b
DTITLE=Matt Sery - A more perfect union
DYEAR=2004
DGENRE=Blues
TTITLE0=Find the truth
TTITLE1=I dont know you now
TTITLE2=Dancin' with Mother Mary
TTITLE3=move mountains
TTITLE4=Neptune
TTITLE5=Alien March
TTITLE6=I'm not angry
TTITLE7=Seasons
TTITLE8=You got it
TTITLE9=Star spangled eyes
TTITLE10=Hollywood
EXTD=
EXTT0=
EXTT1=
EXTT2=
EXTT3=
EXTT4=
EXTT5=
EXTT6=
EXTT7=
EXTT8=
EXTT9=
EXTT10=
PLAYORDER=
